<svg width="41" height="40" viewBox="0 0 41 40" fill="none" xmlns="http://www.w3.org/2000/svg"><path d="M35.5 16.6666C35.5 28.3333 20.5 38.3333 20.5 38.3333C20.5 38.3333 5.5 28.3333 5.5 16.6666C5.5 12.6884 7.08035 8.87307 9.8934 6.06002C12.7064 3.24698 16.5218 1.66663 20.5 1.66663C24.4782 1.66663 28.2936 3.24698 31.1066 6.06002C33.9196 8.87307 35.5 12.6884 35.5 16.6666Z" stroke="white" stroke-width="2" stroke-linecap="round" stroke-linejoin="round"/><path d="M20.5 21.6666C23.2614 21.6666 25.5 19.428 25.5 16.6666C25.5 13.9052 23.2614 11.6666 20.5 11.6666C17.7386 11.6666 15.5 13.9052 15.5 16.6666C15.5 19.428 17.7386 21.6666 20.5 21.6666Z" stroke="white" stroke-width="2" stroke-linecap="round" stroke-linejoin="round"/></svg>