<svg width="41" height="40" viewBox="0 0 41 40" fill="none" xmlns="http://www.w3.org/2000/svg"><path d="M20.4999 31.6667C26.9432 31.6667 32.1666 26.4434 32.1666 20C32.1666 13.5567 26.9432 8.33337 20.4999 8.33337C14.0566 8.33337 8.83325 13.5567 8.83325 20C8.83325 26.4434 14.0566 31.6667 20.4999 31.6667Z" stroke="white" stroke-width="2" stroke-linecap="round" stroke-linejoin="round"/><path d="M20.5 15V20L23 22.5" stroke="white" stroke-width="2" stroke-linecap="round" stroke-linejoin="round"/><path d="M28.0166 28.9167L27.4332 35.3C27.3581 36.1311 26.9741 36.9037 26.3569 37.4654C25.7397 38.027 24.9343 38.3367 24.0999 38.3333H16.8832C16.0488 38.3367 15.2434 38.027 14.6262 37.4654C14.0091 36.9037 13.625 36.1311 13.5499 35.3L12.9666 28.9167M12.9832 11.0833L13.5666 4.69999C13.6414 3.87178 14.0231 3.10146 14.6367 2.54024C15.2504 1.97902 16.0516 1.66744 16.8832 1.66665H24.1332C24.9677 1.66327 25.773 1.97298 26.3902 2.53461C27.0074 3.09623 27.3915 3.86891 27.4666 4.69999L28.0499 11.0833" stroke="white" stroke-width="2" stroke-linecap="round" stroke-linejoin="round"/></svg>